<svg width="90" height="28" viewBox="0 0 90 28" fill="none" xmlns="http://www.w3.org/2000/svg">
<path d="M25.7996 19.8403C25.6584 19.4991 25.5261 19.1404 25.3849 18.8342L24.732 17.3733L24.7055 17.347C22.7643 13.1479 20.6908 8.87878 18.4937 4.67963L18.4055 4.50467C18.1849 4.0935 17.9643 3.63859 17.7349 3.21868C17.4525 2.72003 17.179 2.18639 16.729 1.67899C16.2904 1.14809 15.7383 0.720355 15.1127 0.426648C14.4871 0.132941 13.8036 -0.0194092 13.1114 -0.0194092C12.4192 -0.0194092 11.7356 0.132941 11.11 0.426648C10.4844 0.720355 9.93235 1.14809 9.49372 1.67899C9.07901 2.18639 8.77019 2.72003 8.48783 3.21868C8.26724 3.67359 8.04666 4.11975 7.81724 4.53091L7.72901 4.70588C5.56724 8.90502 3.45842 13.1742 1.51724 17.3733L1.4643 17.4258C1.27019 17.8807 1.04077 18.3531 0.820186 18.8605C0.679009 19.1667 0.537833 19.4991 0.396656 19.8665C0.0155087 20.8287 -0.106204 21.8726 0.0435143 22.8956C0.193232 23.9186 0.609213 24.8852 1.25046 25.7002C1.89171 26.5152 2.73609 27.1505 3.70038 27.5435C4.66468 27.9364 5.71561 28.0735 6.7496 27.9411C7.74089 27.8118 8.69543 27.4844 9.55548 26.9788C10.7025 26.3402 11.8055 25.4129 13.0408 24.0744C14.2761 25.4129 15.4055 26.3402 16.5261 26.9876C17.6037 27.6147 18.824 27.9608 20.0731 27.9936C21.5196 27.9996 22.9194 27.4865 24.0141 26.549C25.1088 25.6116 25.8245 24.3132 26.029 22.8934C26.2653 21.8732 26.1854 20.806 25.7996 19.8315V19.8403ZM13.129 21.2925C11.6114 19.3679 10.6231 17.6007 10.2878 16.0873C10.1489 15.5265 10.119 14.9446 10.1996 14.3727C10.2614 13.9265 10.429 13.5328 10.6584 13.2004C11.1878 12.4393 12.1143 11.9669 13.129 11.9669C13.6109 11.9523 14.0889 12.0566 14.5201 12.2703C14.9513 12.4841 15.3222 12.8007 15.5996 13.1916C15.829 13.5416 15.9967 13.9265 16.0496 14.3727C16.1378 14.8801 16.1025 15.4662 15.9614 16.0873C15.6261 17.5745 14.6378 19.3591 13.129 21.2925ZM24.3702 22.5872C24.2699 23.308 23.9809 23.9902 23.532 24.5658C23.083 25.1414 22.4898 25.5903 21.8114 25.8678C21.1408 26.1478 20.3996 26.2265 19.6761 26.1478C18.9702 26.0603 18.2643 25.8328 17.5408 25.4129C16.3395 24.6767 15.2592 23.7621 14.3378 22.701C16.1908 20.4264 17.3114 18.3531 17.7349 16.5072C17.9378 15.6324 17.9643 14.8451 17.8761 14.119C17.7659 13.4307 17.507 12.7742 17.1172 12.1943C16.6722 11.5656 16.0781 11.0548 15.3873 10.7071C14.6965 10.3593 13.9301 10.1851 13.1555 10.1998C11.5231 10.1998 10.0672 10.9521 9.18489 12.1856C8.78769 12.764 8.53099 13.4257 8.43489 14.119C8.32019 14.8538 8.34666 15.6674 8.57607 16.5072C8.9996 18.3531 10.1467 20.4527 11.9731 22.7185C11.0674 23.7999 9.98462 24.7226 8.77018 25.4479C8.03783 25.8678 7.34077 26.0865 6.63489 26.174C5.53714 26.3134 4.42826 26.0176 3.54927 25.3509C2.67028 24.6842 2.09223 23.7004 1.94077 22.6135C1.85254 21.9136 1.9143 21.2138 2.19666 20.4264C2.28489 20.1465 2.41724 19.8665 2.55842 19.5341C2.75254 19.0792 2.98195 18.6068 3.20254 18.1344L3.23783 18.0732C5.14371 13.9003 7.22607 9.63987 9.38783 5.46697L9.47607 5.29201C9.69666 4.87209 9.91724 4.42593 10.1467 4.00602C10.3761 3.55986 10.6231 3.1312 10.9408 2.78127C11.2157 2.45585 11.5593 2.19415 11.9473 2.01459C12.3352 1.83503 12.7582 1.74197 13.1864 1.74197C13.6145 1.74197 14.0375 1.83503 14.4255 2.01459C14.8134 2.19415 15.157 2.45585 15.432 2.78127C15.7408 3.1312 15.9967 3.55986 16.2261 4.00602C16.4467 4.42593 16.6672 4.88084 16.8967 5.29201L16.9849 5.46697C19.1378 9.63987 21.2202 13.9003 23.1614 18.0732L23.1878 18.0994C23.4172 18.5543 23.6114 19.0617 23.8319 19.4991C23.9731 19.8403 24.1143 20.1115 24.2025 20.4002C24.3702 21.1875 24.4584 21.8874 24.3702 22.5872ZM36.6525 21.1C35.9876 21.1097 35.3291 20.9708 34.7258 20.6936C34.1224 20.4165 33.5897 20.0082 33.1672 19.4991C32.2179 18.4143 31.714 17.0156 31.7555 15.5799C31.741 14.113 32.2611 12.6902 33.2202 11.5732C33.6638 11.0576 34.2161 10.6447 34.8381 10.3636C35.4601 10.0825 36.1366 9.93993 36.8202 9.94606C37.4634 9.92861 38.1004 10.0736 38.6715 10.3674C39.2426 10.6613 39.729 11.0943 40.0849 11.6257L40.1731 10.2522H42.7496V20.8201H40.1643L40.0761 19.2804C39.7092 19.8479 39.202 20.3129 38.6028 20.6314C38.0037 20.9499 37.3323 21.1112 36.6525 21.1ZM37.3231 18.5805C37.8349 18.5805 38.2849 18.4406 38.7084 18.1869C39.0967 17.9069 39.4143 17.5395 39.6614 17.0934C39.8819 16.6472 39.9967 16.1136 39.9967 15.5187C40.0311 15.002 39.9296 14.4853 39.7023 14.0192C39.4749 13.553 39.1294 13.1533 38.6996 12.8592C38.2866 12.6041 37.8097 12.4688 37.3231 12.4688C36.8365 12.4688 36.3597 12.6041 35.9467 12.8592C35.5584 13.1392 35.2408 13.5066 34.9937 13.9527C34.7604 14.4448 34.6456 14.9839 34.6584 15.5274C34.624 16.0441 34.7255 16.5608 34.9528 17.0269C35.1802 17.4931 35.5256 17.8928 35.9555 18.1869C36.3702 18.4406 36.8202 18.5805 37.3231 18.5805ZM47.1614 7.40033C47.1614 7.70652 47.1084 7.98646 46.9672 8.21391C46.8261 8.43262 46.6319 8.63383 46.3761 8.7738C46.1202 8.91377 45.8467 8.96626 45.5643 8.96626C45.2819 8.96626 44.9996 8.91377 44.7437 8.7738C44.5017 8.64022 44.2982 8.44748 44.1525 8.21391C44.0159 7.9647 43.9489 7.68382 43.9584 7.40033C43.9584 7.08539 44.0202 6.80545 44.1525 6.58674C44.2937 6.3243 44.4967 6.16683 44.7437 6.02686C44.9996 5.88689 45.2731 5.82565 45.5643 5.82565C45.8452 5.81923 46.1229 5.88518 46.3703 6.01706C46.6178 6.14893 46.8265 6.34221 46.9761 6.578C47.1045 6.83305 47.1681 7.11534 47.1614 7.40033ZM44.1614 20.7851V10.2347H46.9672V20.8026H44.1525L44.1614 20.7851ZM54.4672 12.9992V13.0342C54.3349 12.9729 54.1584 12.9467 54.0261 12.9205C53.8496 12.8855 53.7084 12.8855 53.5408 12.8855C52.7555 12.8855 52.1643 13.1129 51.7761 13.5853C51.3525 14.0665 51.1584 14.7401 51.1584 15.6062V20.7938H48.3437V10.226H50.929L51.0172 11.8269C51.2996 11.267 51.6349 10.8471 52.1114 10.5322C52.5853 10.2262 53.1433 10.0734 53.7084 10.0948C53.9114 10.0948 54.1055 10.1123 54.2731 10.1473C54.3614 10.1735 54.4143 10.1735 54.4672 10.1998V12.9992ZM55.5966 20.7851V5.89563H58.4025V11.582C58.7996 11.0746 59.2496 10.6809 59.8143 10.3747C60.7083 9.94014 61.7239 9.81686 62.6972 10.0248C63.6706 10.2327 64.5448 10.7597 65.179 11.5207C66.1305 12.6078 66.6344 14.01 66.5908 15.4487C66.6053 16.9156 66.0852 18.3384 65.1261 19.4554C64.6824 19.971 64.1302 20.3839 63.5082 20.665C62.8862 20.9461 62.2096 21.0887 61.5261 21.0825C60.8829 21.1 60.2458 20.955 59.6747 20.6612C59.1036 20.3673 58.6172 19.9343 58.2614 19.4029L58.1731 20.7764L55.5966 20.8026V20.7851ZM61.0231 18.5805C61.5261 18.5805 61.9761 18.4406 62.3996 18.1869C62.7878 17.9069 63.1055 17.5395 63.3525 17.0934C63.582 16.6472 63.6878 16.1136 63.6878 15.5187C63.6878 14.9325 63.582 14.3989 63.3525 13.9527C63.1208 13.5225 62.7953 13.149 62.3996 12.8592C61.9866 12.6041 61.5097 12.4688 61.0231 12.4688C60.5365 12.4688 60.0597 12.6041 59.6467 12.8592C59.2496 13.1392 58.9408 13.5066 58.6849 13.9527C58.4516 14.4448 58.3368 14.9839 58.3496 15.5274C58.3152 16.0441 58.4166 16.5608 58.644 17.0269C58.8713 17.4931 59.2168 17.8928 59.6467 18.1869C60.0614 18.4406 60.5114 18.5805 61.0231 18.5805ZM67.6496 20.7938V10.226H70.2349L70.3231 11.5995C70.648 11.073 71.1089 10.6421 71.658 10.3514C72.2072 10.0608 72.8247 9.9208 73.4467 9.94606C74.1579 9.93388 74.857 10.1299 75.4565 10.5095C76.056 10.8892 76.5293 11.4357 76.8172 12.0806C77.1261 12.7455 77.2937 13.5678 77.2937 14.4864V20.8201H74.479V14.8538C74.479 14.119 74.3114 13.5416 73.9761 13.1129C73.6408 12.693 73.1819 12.4655 72.5996 12.4655C72.1761 12.4655 71.8055 12.553 71.479 12.7455C71.1702 12.9467 70.9143 13.2004 70.7202 13.5591C70.5239 13.9216 70.4266 14.3287 70.4378 14.7401V20.7938H67.6496ZM78.6967 20.7938V5.88689H81.5114V11.5732C81.8926 11.063 82.3886 10.6479 82.9599 10.3609C83.5312 10.0739 84.1621 9.92286 84.8025 9.91981C85.4674 9.91017 86.126 10.0491 86.7293 10.3262C87.3327 10.6034 87.8653 11.0116 88.2878 11.5207C89.2325 12.6077 89.7329 14.0057 89.6908 15.4399C89.7061 16.907 89.1859 18.33 88.2261 19.4466C87.7824 19.9622 87.2302 20.3751 86.6082 20.6563C85.9862 20.9374 85.3096 21.0799 84.6261 21.0738C83.9829 21.0912 83.3458 20.9462 82.7747 20.6524C82.2036 20.3586 81.7172 19.9256 81.3614 19.3941L81.282 20.7676L78.6967 20.7938ZM84.1496 18.5805C84.6614 18.5805 85.1114 18.4406 85.5261 18.1869C85.9231 17.9069 86.2319 17.5395 86.4878 17.0934C86.7084 16.6472 86.8231 16.1136 86.8231 15.5187C86.8575 15.002 86.7561 14.4853 86.5287 14.0192C86.3014 13.553 85.9559 13.1533 85.5261 12.8592C85.1131 12.6041 84.6362 12.4688 84.1496 12.4688C83.663 12.4688 83.1861 12.6041 82.7731 12.8592C82.3849 13.1392 82.0672 13.5066 81.8202 13.9527C81.5739 14.4404 81.4584 14.9827 81.4849 15.5274C81.4505 16.0441 81.5519 16.5608 81.7793 17.0269C82.0066 17.4931 82.3521 17.8928 82.7819 18.1869C83.1967 18.4406 83.6202 18.5805 84.1496 18.5805Z" fill="#555555"/>
</svg>
