<svg width="80" height="24" viewBox="0 0 80 24" fill="none" xmlns="http://www.w3.org/2000/svg">
<path d="M59.4911 23.277L66.1627 15.8893L59.4911 8.50049H66.5304L69.8347 12.0895L73.0166 8.50049H79.8104L73.1704 15.8588L79.9015 23.277H72.8333L69.5589 19.6586L66.3154 23.277H59.4911Z" fill="#555555"/>
<path d="M59.491 5.18809H51.9348V8.50044H59.491V13.4924H51.9348V18.0745H59.491V23.277H46.3811V0H59.491V5.18809Z" fill="#555555"/>
<path d="M40.8508 0V9.52606H40.7899C39.5656 8.13914 38.0358 7.65718 36.2609 7.65718C32.625 7.65718 29.8863 10.093 28.9249 13.3135C27.8285 9.76498 25.001 7.59068 20.8083 7.59068C17.4035 7.59068 14.7148 9.09689 13.3117 11.5512V8.50078H6.27374V5.18877H13.9541V0H0V23.2773H6.27374V13.4924H12.527C12.3405 14.2113 12.241 14.9808 12.241 15.7929C12.241 20.6485 16.0049 24.0554 20.8083 24.0554C24.8477 24.0554 27.5096 22.1866 28.9176 18.7793H23.5412C22.8139 19.8028 22.2623 20.1069 20.8083 20.1069C19.1224 20.1069 17.6689 18.6572 17.6689 16.9388H28.6164C29.0911 20.7955 32.1395 24.1216 36.3228 24.1216C38.1273 24.1216 39.7795 23.2468 40.7899 21.7697H40.8508V23.2766H46.3812V0H40.8508ZM17.8435 13.562C18.1924 12.0836 19.3558 11.1173 20.8083 11.1173C22.4073 11.1173 23.5117 12.0538 23.8021 13.562C23.9245 13.562 17.8435 13.562 17.8435 13.562ZM37.4946 19.7329C35.456 19.7329 34.1892 17.8609 34.1892 15.9064C34.1892 13.8171 35.2911 11.808 37.4946 11.808C39.7795 11.808 40.6897 13.8171 40.6897 15.9064C40.6894 17.8877 39.7249 19.7329 37.4946 19.7329Z" fill="#555555"/>
</svg>
