<svg width="84" height="28" viewBox="0 0 84 28" fill="none" xmlns="http://www.w3.org/2000/svg">
<g clip-path="url(#clip0_34_598)">
<path d="M35.7463 14.3562C35.7463 18.242 32.6612 21.1053 28.875 21.1053C25.0888 21.1053 22.0037 18.242 22.0037 14.3562C22.0037 10.4431 25.0888 7.60718 28.875 7.60718C32.6612 7.60718 35.7463 10.4431 35.7463 14.3562ZM32.7384 14.3562C32.7384 11.928 30.9503 10.2666 28.875 10.2666C26.7997 10.2666 25.0116 11.928 25.0116 14.3562C25.0116 16.7601 26.7997 18.4458 28.875 18.4458C30.9503 18.4458 32.7384 16.757 32.7384 14.3562Z" fill="#555555"/>
<path d="M50.5698 14.3562C50.5698 18.242 47.4846 21.1053 43.6985 21.1053C39.9123 21.1053 36.8271 18.242 36.8271 14.3562C36.8271 10.4462 39.9123 7.60718 43.6985 7.60718C47.4846 7.60718 50.5698 10.4431 50.5698 14.3562ZM47.5619 14.3562C47.5619 11.928 45.7738 10.2666 43.6985 10.2666C41.6232 10.2666 39.8351 11.928 39.8351 14.3562C39.8351 16.7601 41.6232 18.4458 43.6985 18.4458C45.7738 18.4458 47.5619 16.757 47.5619 14.3562Z" fill="#555555"/>
<path d="M64.7757 8.01492V20.1316C64.7757 25.1158 61.7924 27.1515 58.2657 27.1515C54.9458 27.1515 52.9477 24.9636 52.1942 23.1744L54.813 22.1003C55.2793 23.1988 56.422 24.495 58.2626 24.495C60.5201 24.495 61.919 23.1227 61.919 20.5393V19.5686H61.814C61.1408 20.3872 59.8437 21.1022 58.207 21.1022C54.7821 21.1022 51.6445 18.1628 51.6445 14.3806C51.6445 10.5709 54.7821 7.60718 58.207 7.60718C59.8407 7.60718 61.1377 8.32225 61.814 9.11643H61.919V8.01796H64.7757V8.01492ZM62.1321 14.3806C62.1321 12.0041 60.5232 10.2666 58.4757 10.2666C56.4004 10.2666 54.6617 12.0041 54.6617 14.3806C54.6617 16.7327 56.4004 18.4458 58.4757 18.4458C60.5232 18.4458 62.1321 16.7327 62.1321 14.3806Z" fill="#555555"/>
<path d="M69.4853 0.913086V20.6917H66.5515V0.913086H69.4853Z" fill="#555555"/>
<path d="M80.918 16.5775L83.2527 18.1111C82.4992 19.2096 80.6833 21.1022 77.5457 21.1022C73.6545 21.1022 70.7485 18.1385 70.7485 14.3532C70.7485 10.3397 73.6792 7.60413 77.2091 7.60413C80.7636 7.60413 82.5023 10.3914 83.0705 11.8976L83.3824 12.6644L74.2258 16.401C74.9269 17.7551 76.017 18.4458 77.5457 18.4458C79.0774 18.4458 80.1398 17.7034 80.918 16.5775ZM73.7317 14.1493L79.8526 11.645C79.516 10.8022 78.503 10.2149 77.311 10.2149C75.7823 10.2149 73.6545 11.5446 73.7317 14.1493Z" fill="#555555"/>
<path d="M10.8985 12.6005V9.7372H20.6913C20.787 10.2362 20.8364 10.8265 20.8364 11.4655C20.8364 13.6138 20.2404 16.2702 18.3195 18.1629C16.4511 20.0799 14.0639 21.1023 10.9016 21.1023C5.04009 21.1023 0.111267 16.398 0.111267 10.6227C0.111267 4.84732 5.04009 0.143066 10.9016 0.143066C14.1442 0.143066 16.4542 1.39672 18.1898 3.03074L16.1392 5.0512C14.8946 3.901 13.2085 3.0064 10.8985 3.0064C6.61818 3.0064 3.27053 6.40527 3.27053 10.6227C3.27053 14.8401 6.61818 18.2389 10.8985 18.2389C13.6748 18.2389 15.256 17.1405 16.2689 16.1424C17.0904 15.333 17.6308 14.1767 17.8439 12.5975L10.8985 12.6005Z" fill="#555555"/>
</g>
<defs>
<clipPath id="clip0_34_598">
<rect width="84" height="27.9943" fill="white"/>
</clipPath>
</defs>
</svg>
