<svg width="84" height="24" viewBox="0 0 84 24" fill="none" xmlns="http://www.w3.org/2000/svg">
<path d="M9.09675 3.97278V10.7411H2.92846V3.97278H0V20.1295H2.92846V13.5809H9.09675V20.1295H12.0252V3.97278H9.09675Z" fill="#555555"/>
<path d="M21.3974 14.906C21.3974 15.5535 21.1421 16.1745 20.6878 16.6324C20.2334 17.0903 19.6172 17.3475 18.9747 17.3475C18.3321 17.3475 17.7159 17.0903 17.2616 16.6324C16.8072 16.1745 16.552 15.5535 16.552 14.906V7.98584H13.7742V14.906C13.7742 16.2946 14.3215 17.6263 15.2959 18.6082C16.2702 19.5901 17.5917 20.1417 18.9696 20.1417C20.3476 20.1417 21.6691 19.5901 22.6434 18.6082C23.6177 17.6263 24.1651 16.2946 24.1651 14.906V7.98584H21.3974V14.906Z" fill="#555555"/>
<path d="M41.9786 8.6995C41.9786 7.28105 42.9098 6.83137 43.9299 6.83137C44.7521 6.83137 45.8383 7.46179 46.5485 8.22669L48.3678 6.06648C47.4596 4.82877 45.6173 3.97278 44.1093 3.97278C41.0962 3.97278 38.9167 5.75127 38.9167 8.6995C38.9167 14.1694 45.5513 12.4343 45.5513 15.4953C45.5513 16.4395 44.6416 17.2738 43.5999 17.2738C41.9571 17.2738 41.4248 16.4641 40.67 15.6081L38.6512 17.7235C39.9426 19.3213 41.5352 20.1324 43.4435 20.1324C46.306 20.1324 48.6089 18.3322 48.6089 15.5185C48.6089 9.4456 41.9743 11.3325 41.9743 8.6995" fill="#555555"/>
<path d="M83.0228 17.5477C81.3814 17.5477 80.9151 16.832 80.9151 15.7359V10.8849H83.4662V8.4268H80.9151V5.18359L78.0985 6.45745V16.3389C78.0985 18.8664 79.8289 20.1402 82.2021 20.1402C82.5743 20.1471 82.9463 20.117 83.3126 20.0506L83.9999 17.5014C83.69 17.5231 83.3342 17.5448 83.0228 17.5448" fill="#555555"/>
<path d="M31.9706 8.06768C30.5947 8.06768 29.6348 8.46965 28.7064 9.38781V4.0697H25.9243V13.9266C25.9243 17.6166 28.5716 20.144 31.5459 20.144C34.846 20.144 37.7487 17.5717 37.7487 14.1073C37.7487 10.6862 35.077 8.06913 31.9706 8.06913V8.06768ZM31.9534 17.323C31.3291 17.323 30.7188 17.1365 30.1997 16.7869C29.6806 16.4374 29.276 15.9406 29.0371 15.3593C28.7982 14.7781 28.7357 14.1385 28.8575 13.5214C28.9793 12.9044 29.2799 12.3376 29.7214 11.8927C30.1628 11.4478 30.7253 11.1448 31.3376 11.0221C31.9499 10.8994 32.5846 10.9624 33.1614 11.2031C33.7382 11.4439 34.2312 11.8516 34.578 12.3747C34.9249 12.8978 35.11 13.5129 35.11 14.142C35.11 14.9857 34.7775 15.7948 34.1855 16.3913C33.5935 16.9879 32.7906 17.323 31.9534 17.323Z" fill="#555555"/>
<path d="M62.1792 13.959C62.1792 10.4888 59.2823 7.92224 55.9765 7.92224C53.0021 7.92224 50.3549 10.4497 50.3549 14.1397V24.0023H53.137V18.677C54.0639 19.5937 55.0252 19.9971 56.3997 19.9971C59.5061 19.9971 62.1778 17.3815 62.1778 13.959H62.1792ZM59.5449 13.9243C59.5449 14.5534 59.3597 15.1684 59.0129 15.6916C58.666 16.2147 58.173 16.6224 57.5962 16.8632C57.0194 17.1039 56.3848 17.1669 55.7724 17.0442C55.1601 16.9214 54.5977 16.6185 54.1562 16.1736C53.7148 15.7287 53.4141 15.1619 53.2923 14.5449C53.1705 13.9278 53.233 13.2882 53.4719 12.7069C53.7109 12.1257 54.1155 11.6289 54.6346 11.2793C55.1537 10.9298 55.7639 10.7432 56.3883 10.7432C57.2254 10.7432 58.0283 11.0784 58.6203 11.6749C59.2123 12.2715 59.5449 13.0806 59.5449 13.9243Z" fill="#555555"/>
<path d="M71.1671 7.78628V4.96962C71.5364 4.79569 71.8492 4.51962 72.0689 4.17353C72.2886 3.82745 72.4063 3.42559 72.4082 3.01473V2.94966C72.4082 2.37444 72.1814 1.82278 71.7778 1.41603C71.3742 1.00929 70.8268 0.780779 70.2559 0.780779H70.1914C69.6206 0.780779 69.0731 1.00929 68.6695 1.41603C68.2659 1.82278 68.0392 2.37444 68.0392 2.94966V3.01473C68.0411 3.42559 68.1587 3.82745 68.3784 4.17353C68.5982 4.51962 68.9109 4.79569 69.2803 4.96962V7.78628C68.2187 7.94995 67.2188 8.39339 66.3819 9.07171L58.7171 3.05522C58.7714 2.85682 58.8003 2.65226 58.8032 2.44648C58.8041 1.96312 58.6627 1.49036 58.3969 1.08801C58.1311 0.68565 57.7528 0.371771 57.31 0.18607C56.8671 0.000368647 56.3796 -0.0488108 55.909 0.0447519C55.4384 0.138315 55.006 0.370416 54.6663 0.711698C54.3266 1.05298 54.095 1.48811 54.0008 1.96205C53.9066 2.43599 53.9539 2.92745 54.1369 3.37427C54.3199 3.82108 54.6302 4.20318 55.0287 4.47223C55.4272 4.74127 55.8959 4.88518 56.3755 4.88576C56.795 4.88387 57.2066 4.7712 57.5693 4.55898L65.1179 10.4771C64.4396 11.5095 64.0857 12.7238 64.1023 13.9619C64.119 15.1999 64.5054 16.4041 65.2111 17.4176L62.9154 19.7311C62.7298 19.6713 62.5364 19.6396 62.3415 19.6371C61.9477 19.6374 61.5629 19.7553 61.2356 19.9759C60.9083 20.1965 60.6533 20.51 60.5027 20.8767C60.3522 21.2433 60.3129 21.6467 60.3897 22.0359C60.4666 22.4251 60.6563 22.7825 60.9347 23.0631C61.2131 23.3437 61.5679 23.5348 61.9541 23.6123C62.3402 23.6898 62.7405 23.6502 63.1044 23.4985C63.4682 23.3467 63.7793 23.0897 63.9982 22.7599C64.2172 22.4301 64.3342 22.0423 64.3345 21.6455C64.332 21.4491 64.3006 21.2542 64.2412 21.0671L66.5125 18.7782C67.2531 19.3525 68.1144 19.7484 69.0303 19.9356C69.9462 20.1227 70.8924 20.0962 71.7965 19.8579C72.7007 19.6196 73.5387 19.176 74.2464 18.5609C74.9541 17.9459 75.5128 17.1758 75.8796 16.3096C76.2464 15.4434 76.4116 14.5041 76.3625 13.5636C76.3135 12.6231 76.0515 11.7065 75.5966 10.8838C75.1418 10.0611 74.5061 9.35423 73.7383 8.81733C72.9705 8.28044 72.091 7.92775 71.1671 7.78628ZM70.2258 17.0489C69.6045 17.0483 68.9973 16.8621 68.481 16.5139C67.9647 16.1657 67.5624 15.671 67.3249 15.0924C67.0875 14.5138 67.0256 13.8773 67.1471 13.2633C67.2685 12.6493 67.5679 12.0853 68.0073 11.6427C68.4467 11.2001 69.0065 10.8986 69.6158 10.7765C70.2252 10.6544 70.8568 10.7171 71.4308 10.9566C72.0049 11.1962 72.4956 11.6018 72.8409 12.1223C73.1862 12.6428 73.3707 13.2547 73.3709 13.8808C73.3709 14.7207 73.0399 15.5261 72.4506 16.12C71.8613 16.7138 71.0621 17.0474 70.2287 17.0474" fill="#555555"/>
</svg>
