<svg width="13" height="13" viewBox="0 0 13 13" fill="none" xmlns="http://www.w3.org/2000/svg">
<g clip-path="url(#clip0_34_568)">
<path d="M12.8251 3.77417C12.795 3.09208 12.6847 2.62315 12.5267 2.21681C12.3637 1.7855 12.1129 1.39935 11.7844 1.07833C11.4634 0.752326 11.0747 0.499003 10.6484 0.338547C10.2397 0.180539 9.7732 0.0702366 9.09111 0.0401632C8.40392 0.00754284 8.18577 0 6.44288 0C4.7 0 4.48184 0.00754284 3.79721 0.0376163C3.11512 0.0676897 2.64619 0.17809 2.23995 0.336C1.80854 0.499004 1.42239 0.749779 1.10137 1.07833C0.775366 1.39935 0.522142 1.78805 0.361587 2.21436C0.203579 2.62315 0.0932774 3.08953 0.063204 3.77162C0.0305836 4.4588 0.0230408 4.67696 0.0230408 6.41985C0.0230408 8.16273 0.0305836 8.38089 0.060657 9.06552C0.0907305 9.74761 0.20113 10.2165 0.359138 10.6229C0.522142 11.0542 0.775366 11.4403 1.10137 11.7614C1.42239 12.0874 1.81109 12.3407 2.2374 12.5011C2.64619 12.6592 3.11257 12.7695 3.79476 12.7995C4.47929 12.8297 4.69755 12.8371 6.44043 12.8371C8.18332 12.8371 8.40148 12.8297 9.08611 12.7995C9.7682 12.7695 10.2371 12.6592 10.6434 12.5011C11.5061 12.1676 12.1882 11.4855 12.5217 10.6229C12.6796 10.2141 12.79 9.74761 12.8201 9.06552C12.8502 8.38089 12.8577 8.16273 12.8577 6.41985C12.8577 4.67696 12.8552 4.4588 12.8251 3.77417ZM11.6691 9.01537C11.6415 9.64231 11.5362 9.98085 11.4484 10.2066C11.2327 10.7658 10.7888 11.2097 10.2296 11.4254C10.0039 11.5131 9.66289 11.6184 9.03841 11.646C8.36131 11.6761 8.15824 11.6836 6.44543 11.6836C4.73262 11.6836 4.527 11.6761 3.85236 11.646C3.22542 11.6184 2.88687 11.5131 2.66118 11.4254C2.38287 11.3225 2.12955 11.1595 1.92394 10.9463C1.71078 10.7382 1.54777 10.4874 1.44492 10.2091C1.35714 9.9834 1.25184 9.64231 1.22431 9.01792C1.19414 8.34082 1.1867 8.13766 1.1867 6.42484C1.1867 4.71203 1.19414 4.50641 1.22431 3.83186C1.25184 3.20493 1.35714 2.86638 1.44492 2.64068C1.54777 2.36228 1.71078 2.10906 1.92648 1.90334C2.13455 1.69019 2.38532 1.52718 2.66372 1.42442C2.88942 1.33665 3.23051 1.23135 3.8549 1.20372C4.532 1.17365 4.73516 1.1661 6.44788 1.1661C8.16324 1.1661 8.36631 1.17365 9.04095 1.20372C9.66789 1.23135 10.0064 1.33665 10.2321 1.42442C10.5104 1.52718 10.7638 1.69019 10.9694 1.90334C11.1825 2.11151 11.3455 2.36228 11.4484 2.64068C11.5362 2.86638 11.6415 3.20738 11.6691 3.83186C11.6992 4.50896 11.7067 4.71203 11.7067 6.42484C11.7067 8.13766 11.6992 8.33828 11.6691 9.01537Z" fill="#402F2C"/>
<path d="M6.44244 3.12207C4.62187 3.12207 3.14474 4.5991 3.14474 6.41976C3.14474 8.24043 4.62187 9.71746 6.44244 9.71746C8.2631 9.71746 9.74013 8.24043 9.74013 6.41976C9.74013 4.5991 8.2631 3.12207 6.44244 3.12207ZM6.44244 8.5589C5.26135 8.5589 4.30331 7.60095 4.30331 6.41976C4.30331 5.23857 5.26135 4.28063 6.44244 4.28063C7.62363 4.28063 8.58157 5.23857 8.58157 6.41976C8.58157 7.60095 7.62363 8.5589 6.44244 8.5589Z" fill="#402F2C"/>
<path d="M10.6405 2.99178C10.6405 3.41693 10.2957 3.76165 9.87051 3.76165C9.44537 3.76165 9.10065 3.41693 9.10065 2.99178C9.10065 2.56654 9.44537 2.22192 9.87051 2.22192C10.2957 2.22192 10.6405 2.56654 10.6405 2.99178Z" fill="#402F2C"/>
</g>
<defs>
<clipPath id="clip0_34_568">
<rect width="12.8372" height="12.8372" fill="white"/>
</clipPath>
</defs>
</svg>
