<svg width="122" height="26" viewBox="0 0 122 26" fill="none" xmlns="http://www.w3.org/2000/svg">
<g clip-path="url(#clip0_34_605)">
<path d="M43.0636 14.973L42.3364 17.0283H42.2758C42.1546 16.5649 41.9324 15.8596 41.5689 15.0133L37.6705 5.24005H33.853V20.8167H36.3778V11.2047C36.3778 10.6002 36.3778 9.91507 36.3576 9.06873C36.3374 8.64556 36.297 8.32314 36.2768 8.08133H36.3374C36.4586 8.68586 36.6 9.12918 36.701 9.41129L41.3871 20.7764H43.1646L47.8102 9.31054C47.9112 9.04858 48.0122 8.52465 48.1132 8.08133H48.1738C48.1132 9.22994 48.0728 10.2576 48.0526 10.8823V20.7563H50.7391V5.19975H47.0629L43.0636 14.973ZM53.2841 9.59265H55.9099V20.7563H53.2841V9.59265ZM54.6172 4.87734C54.1728 4.87734 53.8093 5.03854 53.5063 5.32066C53.2033 5.60277 53.0417 5.96549 53.0417 6.40881C53.0417 6.83198 53.2033 7.19469 53.5063 7.4768C53.8093 7.75892 54.1728 7.89997 54.6172 7.89997C55.0616 7.89997 55.4453 7.73877 55.7281 7.4768C56.0311 7.19469 56.1927 6.83198 56.1927 6.40881C56.1927 5.98564 56.0311 5.62292 55.7281 5.32066C55.4655 5.03854 55.0818 4.87734 54.6172 4.87734ZM65.2215 9.4919C64.7367 9.39114 64.2318 9.33069 63.747 9.33069C62.5553 9.33069 61.4645 9.59265 60.5556 10.1166C59.6467 10.6405 58.9195 11.3659 58.4549 12.2727C57.9702 13.1997 57.7278 14.2677 57.7278 15.4969C57.7278 16.5649 57.9702 17.512 58.4347 18.3785C58.8993 19.2248 59.5457 19.9099 60.4142 20.3734C61.2424 20.8369 62.2119 21.0787 63.3026 21.0787C64.5549 21.0787 65.6255 20.8167 66.4738 20.3331L66.494 20.3129V17.8948L66.393 17.9754C66.0093 18.2576 65.5649 18.4994 65.1205 18.6404C64.6559 18.8016 64.2318 18.8822 63.8682 18.8822C62.8179 18.8822 61.9897 18.58 61.404 17.915C60.798 17.2702 60.495 16.3835 60.495 15.2752C60.495 14.1266 60.798 13.2198 61.4242 12.5548C62.0503 11.8899 62.8785 11.5473 63.8884 11.5473C64.7367 11.5473 65.6053 11.8294 66.393 12.3936L66.494 12.4742V9.91507L66.4738 9.89492C66.1304 9.75386 65.7467 9.59265 65.2215 9.4919ZM73.8867 9.41129C73.2404 9.41129 72.6344 9.6128 72.1093 10.036C71.6649 10.3987 71.3619 10.9226 71.0993 11.5473H71.0791V9.59265H68.4533V20.7563H71.0791V15.0536C71.0791 14.0863 71.2811 13.2803 71.7255 12.6959C72.1698 12.0914 72.7354 11.7891 73.4222 11.7891C73.6646 11.7891 73.9069 11.8496 74.2099 11.8899C74.4927 11.9705 74.6947 12.0511 74.8361 12.1518L74.9371 12.2324V9.6128L74.8765 9.59265C74.6947 9.47175 74.3311 9.41129 73.8867 9.41129ZM81.0371 9.35084C79.199 9.35084 77.7245 9.89492 76.6944 10.9629C75.644 12.0309 75.1391 13.5019 75.1391 15.3558C75.1391 17.0888 75.6642 18.4994 76.6742 19.5271C77.6841 20.5346 79.0576 21.0585 80.7745 21.0585C82.5722 21.0585 84.0063 20.5145 85.0364 19.4263C86.0867 18.3382 86.5917 16.8873 86.5917 15.0939C86.5917 13.3206 86.1069 11.91 85.1172 10.8823C84.1679 9.85462 82.7742 9.35084 81.0371 9.35084ZM83.1377 17.9351C82.653 18.5598 81.8854 18.8621 80.9361 18.8621C79.9867 18.8621 79.2192 18.5598 78.6738 17.8948C78.1285 17.2702 77.8659 16.3634 77.8659 15.2148C77.8659 14.0259 78.1487 13.1191 78.6738 12.4742C79.2192 11.8294 79.9665 11.507 80.9159 11.507C81.845 11.507 82.5722 11.8093 83.0973 12.4339C83.6225 13.0586 83.9053 13.9654 83.9053 15.1543C83.8649 16.3634 83.6427 17.3105 83.1377 17.9351ZM92.4493 14.2274C91.6212 13.8848 91.096 13.6228 90.8536 13.4012C90.6516 13.1997 90.5506 12.9176 90.5506 12.5548C90.5506 12.2526 90.6718 11.9503 90.9748 11.7488C91.2778 11.5473 91.6212 11.4465 92.1261 11.4465C92.5705 11.4465 93.0351 11.5271 93.4794 11.648C93.9238 11.769 94.3278 11.9503 94.651 12.1921L94.752 12.2727V9.81431L94.6914 9.79416C94.3884 9.67326 93.9844 9.55235 93.4996 9.4516C93.0149 9.37099 92.5705 9.33069 92.2069 9.33069C90.9546 9.33069 89.9245 9.63295 89.1165 10.2979C88.3086 10.9226 87.9248 11.769 87.9248 12.7563C87.9248 13.2803 88.0056 13.7437 88.1874 14.1266C88.3692 14.5095 88.6318 14.8722 88.9953 15.1745C89.3589 15.4566 89.8841 15.779 90.6112 16.0813C91.2172 16.3432 91.6818 16.5447 91.9645 16.7059C92.2473 16.8671 92.4291 17.0485 92.5705 17.1896C92.6715 17.3508 92.7321 17.5523 92.7321 17.8142C92.7321 18.5598 92.1665 18.9225 91.0152 18.9225C90.5708 18.9225 90.1063 18.8419 89.5609 18.6606C89.0155 18.4792 88.5106 18.2173 88.0864 17.915L87.9854 17.8344V20.3936L88.046 20.4137C88.4298 20.5951 88.8943 20.716 89.4599 20.857C90.0255 20.9578 90.5304 21.0384 90.9748 21.0384C92.3281 21.0384 93.439 20.7361 94.2268 20.0711C95.0347 19.4263 95.4589 18.6001 95.4589 17.5321C95.4589 16.7865 95.2569 16.1216 94.8126 15.6178C94.2268 15.1342 93.4996 14.6304 92.4493 14.2274ZM102.387 9.35084C100.549 9.35084 99.0745 9.89492 98.0443 10.9629C97.0142 12.0309 96.4891 13.5019 96.4891 15.3558C96.4891 17.0888 97.0142 18.4994 98.0241 19.5271C99.0341 20.5346 100.408 21.0585 102.124 21.0585C103.922 21.0585 105.356 20.5145 106.386 19.4263C107.437 18.3382 107.942 16.8873 107.942 15.0939C107.942 13.3206 107.457 11.91 106.467 10.8823C105.518 9.85462 104.124 9.35084 102.387 9.35084ZM104.468 17.9351C103.983 18.5598 103.215 18.8621 102.266 18.8621C101.296 18.8621 100.549 18.5598 100.004 17.8948C99.4583 17.2702 99.1957 16.3634 99.1957 15.2148C99.1957 14.0259 99.4785 13.1191 100.004 12.4742C100.549 11.8294 101.296 11.507 102.246 11.507C103.155 11.507 103.902 11.8093 104.427 12.4339C104.952 13.0586 105.235 13.9654 105.235 15.1543C105.235 16.3634 104.972 17.3105 104.468 17.9351ZM121.98 11.7488V9.59265H119.334V6.2879L119.253 6.30805L116.748 7.05364L116.688 7.07379V9.59265H112.729V8.18209C112.729 7.53726 112.89 7.03348 113.173 6.71107C113.456 6.38865 113.88 6.22745 114.405 6.22745C114.769 6.22745 115.153 6.30805 115.577 6.48941L115.678 6.54986V4.27281L115.617 4.25266C115.254 4.13175 114.769 4.05115 114.143 4.05115C113.355 4.05115 112.668 4.23251 112.042 4.53477C111.416 4.87734 110.951 5.34081 110.608 5.96549C110.265 6.57001 110.083 7.25515 110.083 8.04103V9.59265H108.245V11.7287H110.083V20.7563H112.729V11.7488H116.688V17.4918C116.688 19.8495 117.799 21.0384 120.021 21.0384C120.384 21.0384 120.768 20.9779 121.131 20.9175C121.515 20.8369 121.798 20.7361 121.96 20.6555L121.98 20.6354V18.4792L121.879 18.5598C121.717 18.6606 121.576 18.7412 121.333 18.8016C121.131 18.8621 120.95 18.8822 120.808 18.8822C120.283 18.8822 119.92 18.7613 119.657 18.4591C119.415 18.1769 119.293 17.7135 119.293 17.0283V11.7488H121.98Z" fill="#555555"/>
<path d="M0 0H12.3818V12.3525H0V0Z" fill="#555555"/>
<path d="M13.6744 0H26.0562V12.3525H13.6744V0Z" fill="#555555"/>
<path d="M0 13.6422H12.3818V25.9947H0V13.6422Z" fill="#555555"/>
<path d="M13.6744 13.6422H26.0562V25.9947H13.6744V13.6422Z" fill="#555555"/>
</g>
<defs>
<clipPath id="clip0_34_605">
<rect width="122" height="25.9947" fill="white"/>
</clipPath>
</defs>
</svg>
