<svg width="17" height="21" viewBox="0 0 17 21" fill="none" xmlns="http://www.w3.org/2000/svg">
<circle cx="8.32897" cy="5.52803" r="4.77803" stroke="#222222" stroke-width="1.5" stroke-linecap="round" stroke-linejoin="round"/>
<path fill-rule="evenodd" clip-rule="evenodd" d="M0.750016 16.9513C0.748732 16.6154 0.823853 16.2836 0.969696 15.9811C1.42736 15.0657 2.71798 14.5806 3.78892 14.3609C4.56128 14.1961 5.34431 14.086 6.13217 14.0314C7.59084 13.9033 9.05793 13.9033 10.5166 14.0314C11.3044 14.0866 12.0874 14.1967 12.8599 14.3609C13.9308 14.5806 15.2214 15.02 15.6791 15.9811C15.9724 16.5979 15.9724 17.3139 15.6791 17.9307C15.2214 18.8918 13.9308 19.3312 12.8599 19.5417C12.0884 19.7133 11.3051 19.8266 10.5166 19.8804C9.32937 19.981 8.13659 19.9994 6.94681 19.9353C6.67221 19.9353 6.40677 19.9353 6.13217 19.8804C5.34663 19.8272 4.56632 19.714 3.79807 19.5417C2.71798 19.3312 1.43652 18.8918 0.969696 17.9307C0.824598 17.6246 0.749552 17.29 0.750016 16.9513Z" stroke="#222222" stroke-width="1.5" stroke-linecap="round" stroke-linejoin="round"/>
</svg>
