<svg width="13" height="11" viewBox="0 0 13 11" fill="none" xmlns="http://www.w3.org/2000/svg">
<path d="M12.8372 1.23478C12.3598 1.44418 11.8511 1.58299 11.3208 1.65038C11.8664 1.32464 12.2828 0.812754 12.4785 0.195767C11.9699 0.499045 11.4082 0.713266 10.8097 0.832812C10.3267 0.318523 9.63832 0 8.88734 0C7.43032 0 6.25732 1.18263 6.25732 2.63243C6.25732 2.84103 6.27498 3.04161 6.3183 3.23256C4.13036 3.12585 2.19436 2.07722 0.893789 0.47979C0.666731 0.873731 0.533545 1.32464 0.533545 1.81004C0.533545 2.72148 1.0029 3.52942 1.70253 3.99718C1.27971 3.98915 0.864905 3.8664 0.513487 3.67304C0.513487 3.68106 0.513487 3.69149 0.513487 3.70192C0.513487 4.98083 1.42573 6.0431 2.62199 6.28781C2.40777 6.34638 2.1743 6.37446 1.932 6.37446C1.76351 6.37446 1.59342 6.36484 1.43375 6.32953C1.77474 7.37175 2.74234 8.13797 3.89288 8.16284C2.99748 8.86327 1.86059 9.2853 0.629824 9.2853C0.413999 9.2853 0.207 9.27567 0 9.24919C1.16578 10.001 2.54738 10.4302 4.03729 10.4302C8.88012 10.4302 11.5278 6.41859 11.5278 2.94132C11.5278 2.82498 11.5238 2.71266 11.5182 2.60113C12.0405 2.23046 12.4793 1.76752 12.8372 1.23478Z" fill="#402F2C"/>
</svg>
