<svg width="111" height="26" viewBox="0 0 111 26" fill="none" xmlns="http://www.w3.org/2000/svg">
<g clip-path="url(#clip0_34_611)">
<path d="M39.5019 9.24594V10.7191H39.547C40.0772 9.93038 40.9574 9.0015 42.9084 9.0015C44.4262 9.0015 45.5906 9.77394 46.0896 10.9407H46.1347C46.5609 10.3508 47.0495 9.90431 47.597 9.58816C48.2451 9.21335 48.9659 8.99824 49.8738 8.99824C51.9288 8.99824 53.7481 10.3345 53.7481 13.7046V20.096H50.6154V14.1511C50.6154 12.4433 49.9986 11.4557 48.7164 11.4557C47.7773 11.4557 47.0946 12.0489 46.8347 12.779C46.7446 13.0299 46.703 13.3721 46.703 13.659V20.0992H43.5703V13.9099C43.5703 12.4596 42.9777 11.4524 41.7128 11.4524C40.7009 11.4524 40.0668 12.2021 39.8069 12.8441C39.696 13.1179 39.6613 13.4341 39.6613 13.7307V20.096H36.5251V9.24594H39.5019ZM69.9176 9.24594V11.2927H70.0042C70.5795 9.72831 71.9448 9.0015 73.1439 9.0015C73.4454 9.0015 73.6117 9.02431 73.8543 9.06994V11.912C73.5666 11.8729 73.2998 11.8338 72.9255 11.8338C71.5671 11.8338 70.6211 12.5769 70.382 13.7404C70.33 13.9816 70.3126 14.2424 70.3126 14.5422V20.0992H67.0968V9.24594H69.9176ZM78.2206 5.651V9.06668H80.9375V11.8305H78.2206V15.9078C78.2206 17.2278 78.5776 17.8666 79.638 17.8666C80.137 17.8666 80.5043 17.808 80.8231 17.733L80.8647 20.0243C80.4385 20.1742 79.5306 20.3371 78.6088 20.3371C77.5241 20.3371 76.6196 19.9819 76.0686 19.4311C75.438 18.802 75.1469 17.7721 75.1469 16.3055V5.651H78.2206ZM34.342 20.096H31.2231V5.651H34.342V20.096ZM26.025 16.2207C26.025 16.4195 26.0077 16.6281 25.9488 16.8074C25.7062 17.5603 24.878 18.1958 23.8453 18.1958C22.9824 18.1958 22.2963 17.7363 22.2963 16.7618C22.2963 15.2723 24.0428 14.8584 26.0285 14.8681V16.2207H26.025ZM29.1404 13.6231C29.1404 11.1624 28.0246 9.0015 24.2508 9.0015C22.3136 9.0015 20.775 9.5132 19.9364 9.96949L20.5497 11.9446C21.3156 11.4883 22.5389 11.1135 23.6963 11.1135C25.6127 11.1102 25.9245 12.1336 25.9245 12.7887V12.9452C21.7487 12.9387 19.1116 14.2978 19.1116 17.0681C19.1116 18.7597 20.4527 20.3437 22.7884 20.3437C24.2265 20.3437 25.4255 19.8059 26.1463 18.9422H26.2156C26.2156 18.9422 26.6939 20.8162 29.3206 20.0992C29.182 19.317 29.1369 18.4859 29.1369 17.4853V13.6231H29.1404ZM3.44459 5.651C3.76687 7.17958 4.68173 11.6187 4.68173 11.6187C5.06639 13.4438 5.41986 15.357 5.6867 16.8693H5.73521C5.99511 15.2625 6.40403 13.7404 6.84067 11.8566L8.38276 5.651H11.7962L13.2378 12.0163C13.6155 13.7861 13.917 15.1517 14.1561 16.7976H14.2011C14.461 15.1354 14.8007 13.7144 15.1715 11.8957L16.5576 5.651H19.8324L15.7744 20.096C13.1893 20.6272 12.1982 19.6494 11.8447 18.098C11.4912 16.5434 10.7981 13.5873 10.7981 13.5873C10.4412 11.9674 10.164 10.8267 9.96991 9.16446H9.92139C9.64416 10.8104 9.35307 11.9641 8.92336 13.584L7.22186 20.0992C4.58124 20.5946 3.66638 19.8613 3.16043 17.8699C2.72379 16.1653 0 5.65426 0 5.65426H3.44459V5.651ZM61.8987 16.2207C61.8987 16.4195 61.8814 16.6281 61.8224 16.8074C61.5799 17.5603 60.7516 18.1958 59.719 18.1958C58.8561 18.1958 58.1699 17.7363 58.1699 16.7618C58.1699 15.2723 59.9165 14.8584 61.9022 14.8681V16.2207H61.8987ZM65.0141 13.6231C65.0141 11.1624 63.8982 9.0015 60.1244 9.0015C58.1873 9.0015 56.6486 9.5132 55.81 9.96949L56.4234 11.9446C57.1892 11.4883 58.4125 11.1135 59.57 11.1135C61.4828 11.1102 61.7982 12.1336 61.7982 12.7887V12.9452C57.6259 12.9387 54.9887 14.2978 54.9887 17.0681C54.9887 18.7597 56.3333 20.3437 58.6655 20.3437C60.1002 20.3437 61.3026 19.8059 62.02 18.9422H62.0928C62.0928 18.9422 62.571 20.8162 65.1977 20.0992C65.0591 19.317 65.0141 18.4859 65.0141 17.4853V13.6231Z" fill="#555555"/>
<path d="M93.5802 15.121C93.8877 15.6485 93.8669 16.2373 93.5388 16.5062L87.8669 20.4234C87.2762 20.7604 86.3919 20.352 85.8911 19.4977C85.3868 18.6401 85.4766 17.6837 86.0672 17.3468L92.3471 14.4676C92.7409 14.3178 93.2728 14.5935 93.5802 15.121ZM101.045 15.121C101.356 14.5935 101.884 14.3212 102.278 14.4642L108.561 17.3434C109.152 17.6803 109.238 18.6367 108.737 19.4943C108.233 20.3486 107.345 20.7536 106.758 20.42L101.086 16.5028C100.762 16.2373 100.737 15.6451 101.045 15.121ZM97.3108 17.2447C97.9291 17.2447 98.4369 17.5578 98.506 17.9696L99.1174 24.7695C99.1174 25.4434 98.3195 25.9947 97.3143 25.9947C96.3126 25.9947 95.5112 25.4434 95.5112 24.7695L96.1191 17.9696C96.1882 17.5578 96.696 17.2447 97.3108 17.2447ZM101.086 9.49191L106.758 5.57126C107.345 5.23433 108.233 5.63933 108.737 6.49697C109.238 7.35461 109.152 8.31095 108.561 8.64788L102.278 11.5305C101.884 11.6735 101.352 11.4012 101.045 10.8737C100.737 10.3461 100.762 9.75737 101.086 9.49191ZM92.3471 11.5305L86.0672 8.64788C85.48 8.31095 85.3902 7.35461 85.8911 6.49697C86.3919 5.63933 87.2797 5.23433 87.8669 5.57126L93.5388 9.49191C93.8669 9.75397 93.8877 10.3461 93.5802 10.8737C93.2728 11.4012 92.7409 11.6735 92.3471 11.5305ZM96.1191 8.02507L95.5112 1.2252C95.5112 0.551341 96.3091 0 97.3143 0C98.3195 0 99.1174 0.551341 99.1174 1.2252L98.506 8.02507C98.4369 8.43347 97.9291 8.74998 97.3108 8.74998C96.696 8.74998 96.1882 8.43347 96.1191 8.02507ZM110.271 20.3962V20.226H110.427C110.478 20.226 110.513 20.2601 110.513 20.3111C110.513 20.3588 110.478 20.3962 110.427 20.3962H110.271ZM110.143 20.7059C110.143 20.7229 110.157 20.7399 110.178 20.7399H110.244C110.261 20.7399 110.278 20.7229 110.278 20.7059V20.5119H110.385L110.472 20.7161C110.478 20.7297 110.489 20.7399 110.503 20.7399H110.582C110.606 20.7399 110.624 20.7161 110.613 20.6923C110.582 20.631 110.551 20.5664 110.52 20.5017C110.572 20.4847 110.651 20.4336 110.651 20.3111C110.651 20.1818 110.544 20.1069 110.437 20.1069H110.178C110.161 20.1069 110.143 20.1239 110.143 20.141V20.7059ZM109.864 20.4234C109.864 20.1478 110.092 19.9231 110.371 19.9231C110.651 19.9231 110.879 20.1444 110.879 20.4234C110.879 20.6991 110.655 20.9237 110.371 20.9237C110.088 20.9237 109.864 20.6991 109.864 20.4234ZM109.743 20.4234C109.743 20.7638 110.022 21.0428 110.371 21.0428C110.717 21.0428 111 20.7638 111 20.4234C111 20.0831 110.717 19.804 110.371 19.804C110.022 19.804 109.743 20.0831 109.743 20.4234Z" fill="#555555"/>
</g>
<defs>
<clipPath id="clip0_34_611">
<rect width="111" height="25.9947" fill="white"/>
</clipPath>
</defs>
</svg>
